<svg xmlns="http://www.w3.org/2000/svg" width="700pt" height="700pt" version="1.1" viewBox="0 0 600 600">
 <path d="m350 11.668c-147 0-268.33 121.33-268.33 268.33s121.33 268.33 268.33 268.33c35 0 70-7 102.67-21 7-2.332 9.332-9.332 7-16.332s-9.332-9.332-16.332-7c-30.332 11.668-60.668 18.668-93.332 18.668-135.34 2.332-245-107.34-245-242.67s109.67-245 245-245 245 109.67 245 245c0 114.33-67.668 170.33-70 172.67-4.668 4.668-9.332 9.332-14 9.332-9.332 0-16.332-7-18.668-9.332l-21-23.332c18.668-18.668 14-35 14-37.332l-42-63.004c-7-11.668-25.668-16.332-37.332-7l-28 18.668c-4.668-2.332-16.332-9.332-42-44.332-28-42-25.668-58.332-25.668-60.668l28-18.668c11.668-7 16.336-25.668 7-37.332l-37.332-56-2.332-2.332c-2.332 0-9.332-7-21-7-11.668-0.003907-25.668 4.6641-37.336 13.996l-2.332 4.668c-25.668 37.332-30.332 81.668-30.332 84v4.6641c11.668 51.332 37.332 93.332 53.668 116.67l2.332 4.668 2.332 2.332c18.668 28 46.668 63 86.332 91l2.332 2.332s25.668 9.332 58.332 9.332c11.668 0 21 0 32.668-2.332h2.332l21 25.668c2.332 2.332 16.332 16.332 37.332 16.332 7 0 21-2.332 30.332-14 2.332-2.332 77-63 77-189-2.3281-151.66-123.66-273-270.66-273zm21 403.66c-37.332-25.668-60.668-56-79.332-84l-4.668-7c-14-23.332-39.668-60.668-51.332-107.33 0-7 7-42 25.668-70 18.664-11.668 25.664-9.332 30.332-9.332l35 56v4.668l-25.668 16.332c-4.668 2.332-9.332 4.6641-11.668 11.664-7 16.332 2.332 44.332 28 81.668 25.668 37.332 46.668 56 63 56 7 0 11.668-2.332 14-7l25.668-16.332s2.332 0 2.332 2.332l37.332 53.668c0 4.668-4.668 14-18.668 23.332-7 2.332-16.332 2.332-25.668 2.332-18.66 0-39.66-4.6641-44.328-7z" fill="#ffffff"/>
</svg>